#!OML:ASF H:\Terrain\Patient Classification 1\Terrain2\Thursday\justin.ASF
:FULLY-SPECIFIED
:DEGREES
3401
root -12.3175 17.0954 -7.61184 721.049 -190.333 -351.607
lowerback 6.02063 -1.27769 6.90152
upperback 2.18152 -0.718382 5.25548
thorax -1.15986 -0.140518 1.61314
lowerneck -10.2429 -6.36485 -10.2402
upperneck 40.7659 -3.51002 4.19622
head 16.9072 -0.89012 3.61
rclavicle 5.96354e-016 2.46493e-014
rhumerus -30.6144 -3.56347 -79.1133
rradius 44.7864
rwrist -17.2058
rhand -22.0776 13.0891
rfingers 7.12502
rthumb 4.33385 -16.8465
lclavicle 5.96354e-016 2.46493e-014
lhumerus -38.4899 4.64746 86.431
lradius 36.0998
lwrist 3.54888
lhand -15.7759 20.861
lfingers 7.12502
lthumb 10.4163 50.583
rfemur -11.8154 -0.570328 31.0394
rtibia 33.8553
rfoot -17.3398 9.32369
rtoes 22.6921
lfemur -20.573 -7.6236 -5.53824
ltibia 55.4388
lfoot -8.41638 -13.3955
ltoes -5.01038
3402
root -12.3392 17.0924 -7.64755 721.1 -190.875 -351.342
lowerback 6.28489 -1.29524 7.11461
upperback 2.15542 -0.676111 5.37522
thorax -1.33558 -0.115373 1.62092
lowerneck -10.1348 -6.44779 -10.4549
upperneck 40.6727 -3.70184 4.35191
head 16.8628 -0.995207 3.67802
rclavicle 3.8763e-015 -2.94201e-014
rhumerus -30.7516 -3.72994 -78.9321
rradius 44.8154
rwrist -17.2968
rhand -21.7688 13.1992
rfingers 7.12502
rthumb 4.63203 -16.7302
lclavicle 3.8763e-015 -2.94201e-014
lhumerus -38.5621 4.27899 86.5728
lradius 36.0464
lwrist 3.06743
lhand -14.9289 21.2326
lfingers 7.12502
lthumb 11.2333 50.9118
rfemur -11.5426 -0.65871 31.2474
rtibia 33.7304
rfoot -17.4374 9.50387
rtoes 22.2024
lfemur -20.7328 -7.97561 -5.29145
ltibia 55.8814
lfoot -9.71144 -12.8237
ltoes -5.21269
3403
root -12.3613 17.1035 -7.69583 721.256 -191.412 -351.056
lowerback 6.34094 -1.14915 7.61833
upperback 2.11168 -0.434993 5.34849
thorax -1.41129 0.00527067 1.29727
lowerneck -10.0695 -6.75714 -10.5868
upperneck 40.7113 -4.24466 4.56
head 16.9427 -1.21608 3.70577
rclavicle -3.18055e-015 -7.63333e-014
rhumerus -31.1416 -4.32997 -78.7216
rradius 45.0063
rwrist -17.4638
rhand -21.5035 13.272
rfingers 7.12502
rthumb 4.88821 -16.6516
lclavicle -3.18055e-015 -7.63333e-014
lhumerus -38.6033 3.43724 86.8084
lradius 36.0908
lwrist 2.99804
lhand -15.5484 21.1109
lfingers 7.12502
lthumb 10.6358 50.8218
rfemur -11.4623 -0.71517 31.3811
rtibia 33.7009
rfoot -17.2908 10.2062
rtoes 23.2023
lfemur -20.9106 -8.39739 -5.03614
ltibia 56.0699
lfoot -10.7942 -12.2725
ltoes -4.56971
3404
root -12.3845 17.1173 -7.74532 721.63 -192.153 -351.431
lowerback 5.95693 -1.03939 7.30003
upperback 2.08507 -0.388837 5.21178
thorax -1.21983 0.0170314 1.3234
lowerneck -10.3439 -6.88804 -10.5688
upperneck 40.8722 -4.43356 4.51337
head 17.1235 -1.30994 3.65285
rclavicle 3.15074e-014 1.59028e-014
rhumerus -31.0263 -4.27399 -78.7484
rradius 44.7568
rwrist -17.6157
rhand -21.1246 13.6166
rfingers 7.12502
rthumb 5.25404 -16.2982
lclavicle 3.15074e-014 1.59028e-014
lhumerus -38.5752 3.12389 86.9877
lradius 36.081
lwrist 3.65651
lhand -19.6619 18.7085
lfingers 7.12502
lthumb 6.66624 48.5836
rfemur -11.7444 -0.66512 30.7727
rtibia 33.6692
rfoot -17.231 11.0833
rtoes 22.7086
lfemur -21.4002 -8.79191 -5.51564
ltibia 56.0678
lfoot -11.77 -11.3873
ltoes -3.79509
3405
root -12.4046 17.1215 -7.78375 721.923 -192.949 -351.843
lowerback 5.76843 -1.21331 6.53155
upperback 2.02151 -0.710511 5.20794
thorax -1.179 -0.157562 1.76545
lowerneck -10.4438 -6.66651 -10.5832
upperneck 40.9636 -4.10773 4.49355
head 17.1619 -1.19747 3.70334
rclavicle 0 5.56597e-014
rhumerus -30.7188 -3.37323 -79.0812
rradius 44.4171
rwrist -17.7159
rhand -20.7723 13.6822
rfingers 7.12502
rthumb 5.59423 -16.224
lclavicle 0 5.56597e-014
lhumerus -38.7567 3.93765 86.6986
lradius 36.1089
lwrist 3.93552
lhand -18.2707 19.0848
lfingers 7.12502
lthumb 8.00904 48.913
rfemur -11.9323 -0.214581 30.1959
rtibia 33.6299
rfoot -17.3143 11.4811
rtoes 22.392
lfemur -21.845 -9.17721 -5.96543
ltibia 55.9239
lfoot -12.5051 -10.6289
ltoes -1.54679
3406
root -12.4261 17.1147 -7.81477 722.22 -193.631 -351.51
lowerback 5.94251 -1.35643 6.58202
upperback 1.83142 -0.850854 5.3903
thorax -1.47438 -0.231312 1.94196
lowerneck -9.95234 -6.58485 -10.9155
upperneck 40.8432 -4.07683 4.77683
head 16.9892 -1.20539 3.89129
rclavicle 3.18055e-015 -1.90833e-014
rhumerus -30.9345 -3.04247 -79.1674
rradius 44.4027
rwrist -17.6807
rhand -20.6551 13.2906
rfingers 7.12502
rthumb 5.70738 -16.6125
lclavicle 3.18055e-015 -1.90833e-014
lhumerus -39.0457 4.46813 86.5205
lradius 36.0406
lwrist 3.71457
lhand -17.1215 18.6431
lfingers 7.12502
lthumb 9.1181 48.426
rfemur -11.9694 0.470809 30.4343
rtibia 33.604
rfoot -17.1449 11.7253
rtoes 23.0849
lfemur -22.1598 -9.60176 -5.51739
ltibia 55.6592
lfoot -13.1521 -10.3942
ltoes 0.987187
3407
root -12.4527 17.1052 -7.84788 722.576 -194.238 -350.939
lowerback 6.0532 -1.38495 7.07369
upperback 1.69872 -0.797664 5.63978
thorax -1.67891 -0.197032 1.92916
lowerneck -9.67325 -6.68438 -11.3313
upperneck 40.7785 -4.22913 4.92907
head 16.9295 -1.32016 4.00435
rclavicle -2.45499e-014 -1.27222e-014
rhumerus -31.2291 -3.07519 -78.9548
rradius 44.3604
rwrist -17.4258
rhand -20.8901 13.1846
rfingers 7.12502
rthumb 5.48046 -16.7245
lclavicle -2.45499e-014 -1.27222e-014
lhumerus -39.1955 4.24657 86.9941
lradius 36.0227
lwrist 4.83245
lhand -16.5484 22.2478
lfingers 7.12502
lthumb 9.6711 52.0058
rfemur -12.0479 0.738659 30.8661
rtibia 33.562
rfoot -16.8937 12.3325
rtoes 23.7741
lfemur -22.4442 -10.1743 -4.82559
ltibia 55.2188
lfoot -14.1358 -10.1548
ltoes 0.370237
3408
root -12.4785 17.1106 -7.8908 722.739 -194.912 -350.889
lowerback 5.95799 -1.29361 7.19569
upperback 1.78669 -0.681842 5.65912
thorax -1.53366 -0.133179 1.87059
lowerneck -9.46647 -6.72921 -11.5905
upperneck 40.4533 -4.41999 5.11457
head 16.7373 -1.43774 4.07742
rclavicle -4.96962e-016 3.4191e-014
rhumerus -31.2048 -3.18704 -78.7846
rradius 44.1365
rwrist -17.3482
rhand -21.0002 13.4138
rfingers 7.12502
rthumb 5.37417 -16.498
lclavicle -4.96962e-016 3.4191e-014
lhumerus -39.1662 4.03423 87.366
lradius 36.1074
lwrist 5.89513
lhand -19.5952 20.8445
lfingers 7.12502
lthumb 6.73056 50.7175
rfemur -12.0006 0.678496 30.7176
rtibia 33.5326
rfoot -16.9101 13.0584
rtoes 24.9979
lfemur -22.5483 -11.0185 -4.7457
ltibia 54.5406
lfoot -15.1141 -9.8564
ltoes -3.24891
3409
root -12.5024 17.1188 -7.93565 722.803 -195.647 -351.225
lowerback 5.78718 -1.1332 6.99757
upperback 1.94632 -0.545068 5.4433
thorax -1.26807 -0.0690814 1.74162
lowerneck -8.6313 -6.66132 -11.7459
upperneck 39.4129 -4.76669 5.59422
head 16.0241 -1.58779 4.1929
rclavicle -2.98177e-014 -5.1684e-014
rhumerus -30.9298 -3.7032 -78.7611
rradius 43.7682
rwrist -17.4436
rhand -20.6057 13.3346
rfingers 7.12502
rthumb 5.75506 -16.5672
lclavicle -2.98177e-014 -5.1684e-014
lhumerus -38.9234 4.07554 87.1463
lradius 35.9455
lwrist 5.0212
lhand -19.6835 19.3323
lfingers 7.12502
lthumb 6.64532 49.2081
rfemur -11.9546 0.818818 30.1811
rtibia 33.5941
rfoot -17.0664 13.5455
rtoes 25.7367
lfemur -22.6044 -11.8253 -5.08409
ltibia 53.6872
lfoot -16.0314 -9.77646
ltoes -7.19911
3410
root -12.5285 17.1088 -7.97723 723.008 -196.291 -351.213
lowerback 5.68948 -1.038 7.08983
upperback 1.96678 -0.438839 5.35168
thorax -1.19093 -0.0188426 1.58655
lowerneck -9.28671 -6.93621 -11.3204
upperneck 40.1237 -4.98008 5.1649
head 16.5616 -1.65645 3.92887
rclavicle -1.46107e-014 -7.23576e-014
rhumerus -30.8979 -4.18491 -78.7229
rradius 43.5655
rwrist -17.3057
rhand -20.3337 12.7784
rfingers 7.12502
rthumb 6.01764 -17.1161
lclavicle -1.46107e-014 -7.23576e-014
lhumerus -38.8475 4.28669 86.8146
lradius 35.6632
lwrist 3.5299
lhand -19.3029 18.0566
lfingers 7.12502
lthumb 7.01273 47.9205
rfemur -12.0807 1.04958 30.0104
rtibia 33.6993
rfoot -17.1941 14.0535
rtoes 25.8768
lfemur -22.6947 -12.419 -5.02403
ltibia 52.7292
lfoot -16.9433 -9.93497
ltoes -8.99199
